<svg width="18" height="18" viewBox="0 0 18 18" fill="none" xmlns="http://www.w3.org/2000/svg">
<path d="M18 0.200001C18 0.0895436 17.9105 0 17.8 0H0.200001C0.0895436 0 0 0.0895431 0 0.2V17.8C0 17.9105 0.0895431 18 0.2 18H17.8C17.9105 18 18 17.9105 18 17.8V0.200001ZM14 9.8C14 9.91046 13.9105 10 13.8 10H10.2C10.0895 10 10 10.0895 10 10.2V13.8C10 13.9105 9.91046 14 9.8 14H8.2C8.08954 14 8 13.9105 8 13.8V10.2C8 10.0895 7.91046 10 7.8 10H4.2C4.08954 10 4 9.91046 4 9.8V8.2C4 8.08954 4.08954 8 4.2 8H7.8C7.91046 8 8 7.91046 8 7.8V4.2C8 4.08954 8.08954 4 8.2 4H9.8C9.91046 4 10 4.08954 10 4.2V7.8C10 7.91046 10.0895 8 10.2 8H13.8C13.9105 8 14 8.08954 14 8.2V9.8Z" fill="#DAEDCE"/>
</svg>
